<?xml version="1.0" standalone="no"?>
<!DOCTYPE svg PUBLIC "-//W3C//DTD SVG 20010904//EN"
 "http://www.w3.org/TR/2001/REC-SVG-20010904/DTD/svg10.dtd">
<svg version="1.0" xmlns="http://www.w3.org/2000/svg"
 width="571.000000pt" height="88.000000pt" viewBox="0 0 571.000000 88.000000"
 preserveAspectRatio="xMidYMid meet">

<g transform="translate(0.000000,88.000000) scale(0.100000,-0.100000)"
fill="#000000" stroke="none">
<path d="M360 869 c-125 -21 -262 -125 -315 -241 -93 -204 -7 -466 185 -563
104 -53 128 -55 621 -55 266 0 479 4 510 10 128 24 245 114 305 235 84 171 41
389 -101 514 -54 47 -152 91 -227 101 -80 12 -905 11 -978 -1z m140 -155 c17
-15 40 -45 52 -68 11 -22 56 -78 99 -123 70 -75 149 -200 149 -237 0 -7 15
-27 34 -46 19 -19 32 -38 30 -41 -9 -14 -89 1 -104 19 -8 11 -30 27 -47 36
-33 16 -33 16 -33 -8 0 -14 -5 -28 -10 -31 -16 -10 -1 -25 25 -25 13 0 27 -4
30 -10 4 -6 -10 -10 -34 -10 -22 0 -43 -4 -46 -10 -10 -17 -38 -12 -31 5 4 12
2 14 -11 7 -20 -12 -55 -3 -46 11 4 7 0 8 -13 2 -34 -15 -84 -18 -84 -6 0 7
-4 9 -10 6 -6 -3 -10 -2 -10 4 0 13 45 25 60 16 5 -3 19 -3 31 0 14 5 18 12
14 26 -4 10 -8 30 -9 43 -1 14 -17 41 -36 62 -39 45 -54 79 -70 161 -7 35 -18
69 -24 77 -14 17 -76 30 -76 15 0 -6 -4 -7 -10 -4 -18 11 -10 49 21 95 37 55
45 60 91 60 25 0 46 -8 68 -26z m739 0 c12 -15 21 -34 21 -44 0 -34 -39 -70
-75 -70 -36 0 -75 36 -75 70 0 34 39 70 75 70 24 0 39 -7 54 -26z m-109 -145
c0 -6 -7 -21 -16 -34 -26 -40 -12 -55 51 -55 48 0 55 -2 55 -20 0 -18 -7 -20
-55 -20 -63 0 -77 -15 -51 -55 20 -30 20 -41 1 -48 -9 -4 -21 5 -32 23 -13 22
-25 30 -45 30 -39 0 -68 32 -68 74 0 40 28 66 70 66 18 0 31 9 43 30 16 27 47
33 47 9z m170 -31 c0 -5 15 -8 34 -8 25 0 40 -7 55 -26 27 -35 26 -59 -4 -89
-32 -33 -74 -33 -105 0 -19 20 -22 31 -17 63 5 27 2 45 -9 60 -13 19 -13 26
-3 38 11 14 15 13 31 -8 9 -13 18 -26 18 -30z m-92 -219 c41 -14 61 -61 41
-98 -20 -36 -63 -50 -97 -30 -53 29 -52 101 2 127 11 6 21 11 22 11 1 1 15 -4
32 -10z"/>
<path d="M2065 697 c-3 -7 -4 -125 -3 -262 l3 -250 183 -3 182 -2 0 40 0 40
-145 0 -145 0 0 225 0 225 -35 0 c-20 0 -38 -6 -40 -13z"/>
<path d="M3840 694 c-87 -37 -131 -112 -138 -230 -6 -103 14 -167 68 -223 89
-91 262 -91 347 1 34 36 63 109 63 161 l0 47 -90 0 -90 0 0 -30 c0 -29 2 -30
45 -30 39 0 45 -3 45 -20 0 -66 -66 -120 -146 -120 -61 0 -107 27 -138 80 -28
47 -29 169 -2 223 51 104 201 115 261 20 20 -32 39 -38 82 -27 19 5 20 9 12
32 -18 47 -61 94 -103 113 -51 23 -166 25 -216 3z"/>
<path d="M5378 702 l-38 -3 0 -260 0 -259 44 0 44 0 4 134 c3 127 4 136 28
161 20 22 32 25 69 23 35 -2 48 -9 65 -31 18 -25 21 -45 24 -158 l4 -129 45 0
46 0 -5 143 c-6 160 -23 213 -78 242 -46 24 -130 20 -173 -9 l-36 -25 -3 87
-3 87 -37 -3z"/>
<path d="M2545 566 c-34 -15 -85 -70 -85 -91 0 -8 13 -23 29 -34 28 -20 30
-21 35 -3 12 37 53 65 96 65 44 0 64 -14 74 -50 8 -24 8 -24 -91 -43 -79 -16
-120 -41 -139 -86 -18 -43 -7 -89 31 -124 35 -33 125 -39 178 -12 29 16 37 17
37 6 0 -9 12 -14 36 -14 l36 0 -4 153 c-3 169 -10 190 -71 227 -38 23 -116 26
-162 6z m155 -235 c0 -16 -3 -37 -6 -46 -15 -37 -115 -60 -142 -33 -17 17 -15
53 3 68 14 12 100 37 133 39 7 1 12 -11 12 -28z"/>
<path d="M2980 573 c-8 -3 -23 -12 -32 -21 -16 -14 -18 -13 -18 1 0 13 -9 17
-40 17 l-40 0 0 -195 0 -195 40 0 40 0 0 120 c0 140 11 173 67 196 44 19 95 5
112 -32 6 -15 11 -78 11 -154 l0 -130 41 0 41 0 -4 148 c-3 167 -16 203 -78
234 -33 17 -108 23 -140 11z"/>
<path d="M3355 566 c-127 -58 -144 -285 -27 -363 61 -40 148 -42 191 -2 21 20
21 20 21 -1 0 -34 -29 -80 -56 -90 -47 -18 -103 -12 -129 14 -22 22 -28 23
-60 13 -19 -5 -35 -14 -35 -18 0 -5 14 -24 30 -43 53 -60 179 -72 253 -22 17
12 42 41 55 66 21 42 22 57 22 247 l0 203 -35 0 c-24 0 -35 -5 -35 -15 0 -19
-9 -19 -32 2 -25 22 -123 28 -163 9z m120 -70 c60 -25 83 -113 51 -191 -17
-40 -42 -55 -91 -55 -75 0 -110 47 -103 141 5 66 24 94 72 108 17 5 32 10 34
10 1 1 18 -5 37 -13z"/>
<path d="M4626 570 c-35 -11 -63 -36 -83 -74 -14 -28 -14 -30 8 -47 32 -25 44
-24 57 7 14 30 74 58 105 48 31 -9 57 -34 57 -55 0 -19 -10 -23 -75 -34 -60
-10 -132 -44 -150 -71 -19 -30 -19 -93 1 -122 36 -52 129 -68 197 -33 29 15
37 16 37 5 0 -9 12 -14 35 -14 l35 0 0 148 c0 169 -11 205 -70 234 -37 19
-106 22 -154 8z m144 -249 c0 -31 -6 -44 -26 -60 -44 -35 -134 -23 -134 17 0
32 24 51 80 66 79 21 80 21 80 -23z"/>
<path d="M5028 564 c-16 -8 -28 -10 -28 -4 0 5 -18 10 -40 10 l-40 0 0 -285 0
-285 45 0 45 0 0 99 0 100 28 -15 c37 -19 110 -18 152 4 105 53 135 236 53
333 -14 16 -38 36 -54 44 -36 19 -126 19 -161 -1z m129 -76 c41 -33 54 -122
29 -183 -28 -65 -111 -79 -158 -26 -24 27 -28 40 -28 92 0 67 20 115 53 129
27 12 84 5 104 -12z"/>
<path d="M4270 375 l0 -195 40 0 40 0 0 124 c0 108 2 126 20 149 21 27 83 53
100 42 6 -4 10 9 10 34 0 37 -3 41 -24 41 -34 0 -72 -16 -96 -40 l-20 -20 0
30 c0 28 -3 30 -35 30 l-35 0 0 -195z"/>
</g>
</svg>
