<?xml version="1.0" standalone="no"?>
<!DOCTYPE svg PUBLIC "-//W3C//DTD SVG 20010904//EN"
 "http://www.w3.org/TR/2001/REC-SVG-20010904/DTD/svg10.dtd">
<svg version="1.0" xmlns="http://www.w3.org/2000/svg"
 width="228.000000pt" height="221.000000pt" viewBox="0 0 228.000000 221.000000"
 preserveAspectRatio="xMidYMid meet">

<g transform="translate(0.000000,221.000000) scale(0.100000,-0.100000)"
fill="#000000" stroke="none">
<path d="M491 1559 l0 -643 162 162 162 162 162 -162 163 -163 158 158 c86 86
162 157 167 157 6 0 79 -70 164 -155 85 -85 154 -155 155 -155 1 0 2 289 4
643 l3 642 -325 -325 -326 -325 -324 324 -324 324 -1 -644z"/>
<path d="M1297 572 c-41 -45 -8 -112 55 -112 57 0 91 76 50 113 -25 23 -85 22
-105 -1z"/>
<path d="M10 285 l0 -275 60 0 59 0 3 143 3 142 41 -80 42 -80 54 3 54 4 39
75 40 74 3 -141 3 -141 62 3 62 3 3 273 2 272 -62 0 -63 0 -69 -145 c-38 -80
-72 -145 -75 -145 -3 1 -37 66 -75 145 l-69 145 -59 0 -58 0 0 -275z"/>
<path d="M1040 475 c0 -52 -1 -55 -25 -55 -23 0 -25 -3 -25 -50 0 -47 2 -50
25 -50 l25 0 0 -109 c0 -60 4 -121 10 -135 16 -42 66 -67 130 -64 l55 3 3 52
3 52 -33 3 -33 3 -3 98 -3 97 41 0 40 0 0 50 0 50 -40 0 -40 0 0 55 0 55 -65
0 -65 0 0 -55z"/>
<path d="M703 419 c-54 -16 -100 -70 -112 -131 -12 -60 -7 -147 10 -181 35
-67 87 -97 173 -99 79 -1 140 26 175 77 35 52 42 173 13 238 -29 65 -85 100
-166 104 -33 1 -76 -2 -93 -8z m127 -109 c16 -16 20 -33 20 -92 0 -84 -15
-108 -67 -108 -54 0 -73 28 -73 105 0 57 3 69 25 90 29 30 68 32 95 5z"/>
<path d="M1574 417 c-81 -31 -117 -90 -118 -192 0 -84 15 -133 52 -168 37 -36
76 -48 149 -48 121 0 183 60 191 186 7 114 -24 181 -102 216 -46 21 -125 24
-172 6z m124 -107 c22 -21 26 -40 23 -120 -2 -55 -23 -80 -68 -80 -54 0 -73
28 -73 109 0 63 2 71 26 90 34 27 64 27 92 1z"/>
<path d="M2046 405 c-34 -23 -36 -23 -36 -5 0 18 -7 20 -60 20 l-60 0 0 -205
0 -205 65 0 64 0 3 142 3 142 28 16 c24 13 30 13 55 0 l27 -16 3 -142 3 -142
65 0 66 0 -4 168 c-3 146 -5 171 -23 196 -39 59 -136 74 -199 31z"/>
<path d="M1284 218 l1 -203 62 -3 62 -3 3 189 c2 104 2 196 0 206 -3 13 -16
16 -67 16 l-63 0 2 -202z"/>
</g>
</svg>
